<mxfile host="app.diagrams.net" modified="2023-07-12T08:59:34.138Z" agent="Mozilla/5.0 (Macintosh; Intel Mac OS X 10_15_7) AppleWebKit/537.36 (KHTML, like Gecko) Chrome/114.0.0.0 Safari/537.36" etag="XBZK4VQJl5EXG08X3ZBb" version="21.5.2" type="device">
  <diagram id="EFVvfqe8tuVptC2TicLU" name="SeqDiagram">
    <mxGraphModel dx="1034" dy="525" grid="1" gridSize="10" guides="1" tooltips="1" connect="1" arrows="1" fold="1" page="1" pageScale="1" pageWidth="827" pageHeight="1169" math="0" shadow="0">
      <root>
        <mxCell id="0" />
        <mxCell id="1" parent="0" />
        <mxCell id="PZaKtE-vyPjwhnsOyzuk-1" value="" style="shape=umlLifeline;participant=umlActor;perimeter=lifelinePerimeter;whiteSpace=wrap;html=1;container=1;collapsible=0;recursiveResize=0;verticalAlign=top;spacingTop=36;outlineConnect=0;fillColor=#fff2cc;strokeColor=#d6b656;" parent="1" vertex="1">
          <mxGeometry x="23" y="124.27" width="23.86" height="757.73" as="geometry" />
        </mxCell>
        <mxCell id="PZaKtE-vyPjwhnsOyzuk-2" value="" style="html=1;points=[];perimeter=orthogonalPerimeter;fillColor=#fff2cc;strokeColor=#d6b656;" parent="PZaKtE-vyPjwhnsOyzuk-1" vertex="1">
          <mxGeometry x="5.97" y="85.43" width="11.93" height="104.57" as="geometry" />
        </mxCell>
        <mxCell id="PZaKtE-vyPjwhnsOyzuk-3" value="" style="html=1;points=[];perimeter=orthogonalPerimeter;fillColor=#fff2cc;strokeColor=#d6b656;" parent="PZaKtE-vyPjwhnsOyzuk-1" vertex="1">
          <mxGeometry x="5.97" y="305.4" width="11.93" height="204.6" as="geometry" />
        </mxCell>
        <mxCell id="PZaKtE-vyPjwhnsOyzuk-4" value="&lt;font color=&quot;#cc0000&quot;&gt;&lt;b&gt;2.1 开始tips/small/online（单机、20%、全量）部署&lt;/b&gt;&lt;/font&gt;" style="html=1;verticalAlign=bottom;endArrow=block;" parent="PZaKtE-vyPjwhnsOyzuk-1" edge="1">
          <mxGeometry x="-0.0169" y="10" width="80" relative="1" as="geometry">
            <mxPoint x="20.284268629254832" y="316.08040201005025" as="sourcePoint" />
            <mxPoint x="239" y="315.7286432160804" as="targetPoint" />
            <mxPoint x="1" as="offset" />
          </mxGeometry>
        </mxCell>
        <mxCell id="PZaKtE-vyPjwhnsOyzuk-5" value=":CD前端" style="shape=umlLifeline;perimeter=lifelinePerimeter;whiteSpace=wrap;html=1;container=1;collapsible=0;recursiveResize=0;outlineConnect=0;fillColor=#f8cecc;strokeColor=#b85450;" parent="1" vertex="1">
          <mxGeometry x="209.14" y="120" width="119.32" height="762" as="geometry" />
        </mxCell>
        <mxCell id="PZaKtE-vyPjwhnsOyzuk-6" value="" style="html=1;points=[];perimeter=orthogonalPerimeter;fillColor=#f8cecc;strokeColor=#b85450;" parent="PZaKtE-vyPjwhnsOyzuk-5" vertex="1">
          <mxGeometry x="51.31" y="92.9" width="11.93" height="187.1" as="geometry" />
        </mxCell>
        <mxCell id="PZaKtE-vyPjwhnsOyzuk-7" style="edgeStyle=orthogonalEdgeStyle;rounded=0;orthogonalLoop=1;jettySize=auto;html=1;entryX=1;entryY=0.965;entryDx=0;entryDy=0;entryPerimeter=0;" parent="PZaKtE-vyPjwhnsOyzuk-5" source="PZaKtE-vyPjwhnsOyzuk-6" target="PZaKtE-vyPjwhnsOyzuk-6" edge="1">
          <mxGeometry relative="1" as="geometry">
            <Array as="points">
              <mxPoint x="87" y="250" />
              <mxPoint x="87" y="274" />
            </Array>
          </mxGeometry>
        </mxCell>
        <mxCell id="PZaKtE-vyPjwhnsOyzuk-8" value="1.9 跳转变更单详情页" style="edgeLabel;html=1;align=center;verticalAlign=middle;resizable=0;points=[];" parent="PZaKtE-vyPjwhnsOyzuk-7" vertex="1" connectable="0">
          <mxGeometry x="-0.0353" y="4" relative="1" as="geometry">
            <mxPoint x="34" as="offset" />
          </mxGeometry>
        </mxCell>
        <mxCell id="PZaKtE-vyPjwhnsOyzuk-9" value="" style="html=1;points=[];perimeter=orthogonalPerimeter;fillColor=#f8cecc;strokeColor=#b85450;" parent="PZaKtE-vyPjwhnsOyzuk-5" vertex="1">
          <mxGeometry x="53.69" y="309.67" width="11.93" height="420.33" as="geometry" />
        </mxCell>
        <mxCell id="PZaKtE-vyPjwhnsOyzuk-10" value=":CD后端" style="shape=umlLifeline;perimeter=lifelinePerimeter;whiteSpace=wrap;html=1;container=1;collapsible=0;recursiveResize=0;outlineConnect=0;fillColor=#d5e8d4;strokeColor=#82b366;" parent="1" vertex="1">
          <mxGeometry x="670.9" y="120" width="119.32" height="768" as="geometry" />
        </mxCell>
        <mxCell id="PZaKtE-vyPjwhnsOyzuk-11" value="" style="html=1;points=[];perimeter=orthogonalPerimeter;fillColor=#f8cecc;strokeColor=#b85450;" parent="PZaKtE-vyPjwhnsOyzuk-10" vertex="1">
          <mxGeometry x="53.69" y="95.04" width="11.93" height="154.96" as="geometry" />
        </mxCell>
        <mxCell id="PZaKtE-vyPjwhnsOyzuk-12" value="" style="html=1;points=[];perimeter=orthogonalPerimeter;fillColor=#f8cecc;strokeColor=#b85450;" parent="PZaKtE-vyPjwhnsOyzuk-10" vertex="1">
          <mxGeometry x="53.69" y="309.67" width="11.93" height="430.33" as="geometry" />
        </mxCell>
        <mxCell id="PZaKtE-vyPjwhnsOyzuk-13" value="&lt;span&gt;2.3.带着eventId去做校验，&lt;br&gt;没有就创建变更单，如果有状态继承，&lt;br&gt;可以直接放行&lt;/span&gt;" style="html=1;verticalAlign=bottom;endArrow=block;" parent="PZaKtE-vyPjwhnsOyzuk-10" edge="1">
          <mxGeometry width="80" relative="1" as="geometry">
            <mxPoint x="70.39834406623736" y="341.7085427135678" as="sourcePoint" />
            <mxPoint x="304.860625574977" y="341.7085427135678" as="targetPoint" />
          </mxGeometry>
        </mxCell>
        <mxCell id="PZaKtE-vyPjwhnsOyzuk-14" value="&lt;font style=&quot;font-size: 10px&quot;&gt;2.5.2审批通过直接执行&lt;/font&gt;" style="edgeStyle=orthogonalEdgeStyle;html=1;align=left;spacingLeft=2;endArrow=block;rounded=0;strokeColor=#000000;fontSize=12;fontColor=#CC0000;" parent="PZaKtE-vyPjwhnsOyzuk-10" source="PZaKtE-vyPjwhnsOyzuk-12" edge="1">
          <mxGeometry x="-0.0383" relative="1" as="geometry">
            <mxPoint x="141.98988040478383" y="416.45728643216074" as="sourcePoint" />
            <Array as="points">
              <mxPoint x="109" y="380" />
              <mxPoint x="109" y="400" />
            </Array>
            <mxPoint x="66.09659613615452" y="400" as="targetPoint" />
            <mxPoint as="offset" />
          </mxGeometry>
        </mxCell>
        <mxCell id="PZaKtE-vyPjwhnsOyzuk-15" value=":变更管控后端" style="shape=umlLifeline;perimeter=lifelinePerimeter;whiteSpace=wrap;html=1;container=1;collapsible=0;recursiveResize=0;outlineConnect=0;fillColor=#dae8fc;strokeColor=#6c8ebf;" parent="1" vertex="1">
          <mxGeometry x="922.67" y="120" width="119.32" height="769" as="geometry" />
        </mxCell>
        <mxCell id="PZaKtE-vyPjwhnsOyzuk-16" value="" style="html=1;points=[];perimeter=orthogonalPerimeter;fillColor=#dae8fc;strokeColor=#6c8ebf;" parent="PZaKtE-vyPjwhnsOyzuk-15" vertex="1">
          <mxGeometry x="51.30726770929163" y="97.17336683417085" width="11.931922723091077" height="85.42713567839195" as="geometry" />
        </mxCell>
        <mxCell id="PZaKtE-vyPjwhnsOyzuk-17" value="" style="html=1;points=[];perimeter=orthogonalPerimeter;fillColor=#dae8fc;strokeColor=#6c8ebf;" parent="PZaKtE-vyPjwhnsOyzuk-15" vertex="1">
          <mxGeometry x="53.693652253909846" y="309.67336683417085" width="11.931922723091077" height="85.42713567839195" as="geometry" />
        </mxCell>
        <mxCell id="PZaKtE-vyPjwhnsOyzuk-18" value=":变更管控前端" style="shape=umlLifeline;perimeter=lifelinePerimeter;whiteSpace=wrap;html=1;container=1;collapsible=0;recursiveResize=0;outlineConnect=0;fillColor=#dae8fc;strokeColor=#6c8ebf;" parent="1" vertex="1">
          <mxGeometry x="1200.68" y="120" width="119.32" height="764" as="geometry" />
        </mxCell>
        <mxCell id="PZaKtE-vyPjwhnsOyzuk-19" value="" style="html=1;points=[];perimeter=orthogonalPerimeter;fillColor=#dae8fc;strokeColor=#6c8ebf;" parent="PZaKtE-vyPjwhnsOyzuk-18" vertex="1">
          <mxGeometry x="53.69" y="180" width="11.93" height="410" as="geometry" />
        </mxCell>
        <mxCell id="PZaKtE-vyPjwhnsOyzuk-20" value=":变更管控JSSDK" style="shape=umlLifeline;perimeter=lifelinePerimeter;whiteSpace=wrap;html=1;container=1;collapsible=0;recursiveResize=0;outlineConnect=0;fillColor=#dae8fc;strokeColor=#6c8ebf;" parent="1" vertex="1">
          <mxGeometry x="446.58" y="120" width="119.32" height="765" as="geometry" />
        </mxCell>
        <mxCell id="PZaKtE-vyPjwhnsOyzuk-21" value="" style="html=1;points=[];perimeter=orthogonalPerimeter;fillColor=#dae8fc;strokeColor=#6c8ebf;" parent="PZaKtE-vyPjwhnsOyzuk-20" vertex="1">
          <mxGeometry x="53.693652253909846" y="427.13567839195974" width="11.931922723091077" height="85.42713567839195" as="geometry" />
        </mxCell>
        <mxCell id="PZaKtE-vyPjwhnsOyzuk-22" value="1.3 生成管控单" style="html=1;verticalAlign=bottom;endArrow=block;entryX=0;entryY=0.238;entryDx=0;entryDy=0;entryPerimeter=0;" parent="1" target="PZaKtE-vyPjwhnsOyzuk-16" edge="1">
          <mxGeometry width="80" relative="1" as="geometry">
            <mxPoint x="737.7221711131556" y="237.462311557789" as="sourcePoint" />
            <mxPoint x="975.167433302668" y="257.2173366834171" as="targetPoint" />
          </mxGeometry>
        </mxCell>
        <mxCell id="PZaKtE-vyPjwhnsOyzuk-23" value="&lt;span style=&quot;font-size: 12px&quot;&gt;1.6 返回管控单eventId&lt;/span&gt;" style="html=1;verticalAlign=bottom;endArrow=open;dashed=1;endSize=8;" parent="1" edge="1">
          <mxGeometry relative="1" as="geometry">
            <mxPoint x="969.2014719411225" y="301.5326633165829" as="sourcePoint" />
            <mxPoint x="735.3357865685373" y="301.5326633165829" as="targetPoint" />
          </mxGeometry>
        </mxCell>
        <mxCell id="PZaKtE-vyPjwhnsOyzuk-24" value="&lt;span style=&quot;font-size: 12px&quot;&gt;2.7.Sdk弹出提示管控单未审批&lt;/span&gt;" style="html=1;verticalAlign=bottom;endArrow=open;dashed=1;endSize=8;" parent="1" target="PZaKtE-vyPjwhnsOyzuk-3" edge="1">
          <mxGeometry relative="1" as="geometry">
            <mxPoint x="496.69733210671575" y="621.8844221105528" as="sourcePoint" />
            <mxPoint x="401.24195032198713" y="621.8844221105527" as="targetPoint" />
          </mxGeometry>
        </mxCell>
        <mxCell id="PZaKtE-vyPjwhnsOyzuk-25" value="1.5 等待异步审批" style="html=1;verticalAlign=bottom;endArrow=open;exitX=1.1;exitY=1;exitDx=0;exitDy=0;exitPerimeter=0;endFill=0;" parent="1" source="PZaKtE-vyPjwhnsOyzuk-16" target="PZaKtE-vyPjwhnsOyzuk-19" edge="1">
          <mxGeometry width="80" relative="1" as="geometry">
            <mxPoint x="982.3265869365226" y="276.9723618090452" as="sourcePoint" />
            <mxPoint x="1081.3615455381785" y="290.8542713567839" as="targetPoint" />
            <Array as="points" />
          </mxGeometry>
        </mxCell>
        <mxCell id="PZaKtE-vyPjwhnsOyzuk-26" value="1.8 返回变更单OrderId+管控单eventID" style="html=1;verticalAlign=bottom;endArrow=open;dashed=1;endSize=8;exitX=0.1;exitY=0.941;exitDx=0;exitDy=0;exitPerimeter=0;" parent="1" source="PZaKtE-vyPjwhnsOyzuk-11" target="PZaKtE-vyPjwhnsOyzuk-6" edge="1">
          <mxGeometry relative="1" as="geometry">
            <mxPoint x="365.4461821527139" y="301.5326633165829" as="sourcePoint" />
            <mxPoint x="269.99080036798534" y="301.5326633165829" as="targetPoint" />
          </mxGeometry>
        </mxCell>
        <mxCell id="PZaKtE-vyPjwhnsOyzuk-27" value="1.1填写上线单" style="html=1;verticalAlign=bottom;endArrow=block;entryX=-0.2;entryY=0.021;entryDx=0;entryDy=0;entryPerimeter=0;" parent="1" target="PZaKtE-vyPjwhnsOyzuk-6" edge="1">
          <mxGeometry width="80" relative="1" as="geometry">
            <mxPoint x="42" y="217" as="sourcePoint" />
            <mxPoint x="256.8656853725851" y="231.05527638190955" as="targetPoint" />
          </mxGeometry>
        </mxCell>
        <mxCell id="PZaKtE-vyPjwhnsOyzuk-28" value="1.2 提交变更单" style="html=1;verticalAlign=bottom;endArrow=block;exitX=1.2;exitY=0.105;exitDx=0;exitDy=0;exitPerimeter=0;" parent="1" source="PZaKtE-vyPjwhnsOyzuk-6" target="PZaKtE-vyPjwhnsOyzuk-10" edge="1">
          <mxGeometry width="80" relative="1" as="geometry">
            <mxPoint x="274.7635694572217" y="243.86934673366835" as="sourcePoint" />
            <mxPoint x="722.2106715731371" y="246.00502512562812" as="targetPoint" />
          </mxGeometry>
        </mxCell>
        <mxCell id="PZaKtE-vyPjwhnsOyzuk-29" value="1.4 平台自身落单" style="edgeStyle=orthogonalEdgeStyle;html=1;align=left;spacingLeft=2;endArrow=block;rounded=0;" parent="1" edge="1">
          <mxGeometry x="0.0161" y="4" relative="1" as="geometry">
            <mxPoint x="737.7221711131556" y="252.4120603015075" as="sourcePoint" />
            <Array as="points">
              <mxPoint x="790.2226310947563" y="252.41206030150752" />
              <mxPoint x="790.2226310947563" y="284.4472361809045" />
            </Array>
            <mxPoint x="737.6028518859246" y="284.44723618090427" as="targetPoint" />
            <mxPoint as="offset" />
          </mxGeometry>
        </mxCell>
        <mxCell id="PZaKtE-vyPjwhnsOyzuk-30" value="2.4 未审批，返回状态码、eventId" style="html=1;verticalAlign=bottom;endArrow=open;dashed=1;endSize=8;entryX=1.291;entryY=0.129;entryDx=0;entryDy=0;entryPerimeter=0;" parent="1" source="PZaKtE-vyPjwhnsOyzuk-15" target="PZaKtE-vyPjwhnsOyzuk-12" edge="1">
          <mxGeometry relative="1" as="geometry">
            <mxPoint x="842.723091076357" y="493.7437185929648" as="sourcePoint" />
            <mxPoint x="747.2677092916284" y="493.7437185929648" as="targetPoint" />
          </mxGeometry>
        </mxCell>
        <mxCell id="PZaKtE-vyPjwhnsOyzuk-31" value="2.5 验证不通过" style="html=1;verticalAlign=bottom;endArrow=open;dashed=1;endSize=8;entryX=1.1;entryY=0.237;entryDx=0;entryDy=0;entryPerimeter=0;" parent="1" source="PZaKtE-vyPjwhnsOyzuk-10" target="PZaKtE-vyPjwhnsOyzuk-9" edge="1">
          <mxGeometry relative="1" as="geometry">
            <mxPoint x="377.378104875805" y="504.4221105527638" as="sourcePoint" />
            <mxPoint x="281.92272309107636" y="504.4221105527638" as="targetPoint" />
          </mxGeometry>
        </mxCell>
        <mxCell id="PZaKtE-vyPjwhnsOyzuk-32" value="&lt;span style=&quot;font-size: 12px&quot;&gt;2.6.识别状态码调起管控SDK&lt;/span&gt;" style="html=1;verticalAlign=bottom;endArrow=block;exitX=1.02;exitY=0.303;exitDx=0;exitDy=0;exitPerimeter=0;" parent="1" source="PZaKtE-vyPjwhnsOyzuk-9" edge="1">
          <mxGeometry x="0.0667" width="80" relative="1" as="geometry">
            <mxPoint x="281.92272309107636" y="557.8140703517588" as="sourcePoint" />
            <mxPoint x="500" y="558" as="targetPoint" />
            <mxPoint as="offset" />
          </mxGeometry>
        </mxCell>
        <mxCell id="PZaKtE-vyPjwhnsOyzuk-33" value="2.10 审批完成，回调状态" style="html=1;verticalAlign=bottom;endArrow=open;dashed=1;endSize=8;" parent="1" edge="1">
          <mxGeometry relative="1" as="geometry">
            <mxPoint x="980" y="709" as="sourcePoint" />
            <mxPoint x="740" y="709" as="targetPoint" />
          </mxGeometry>
        </mxCell>
        <mxCell id="PZaKtE-vyPjwhnsOyzuk-34" value="2.9 审批通过" style="html=1;verticalAlign=bottom;endArrow=open;dashed=1;endSize=8;fontSize=12;entryX=1.014;entryY=0.964;entryDx=0;entryDy=0;entryPerimeter=0;" parent="1" source="PZaKtE-vyPjwhnsOyzuk-19" edge="1">
          <mxGeometry relative="1" as="geometry">
            <mxPoint x="1206.53" y="700" as="sourcePoint" />
            <mxPoint x="979.9952038383842" y="700.7913599999999" as="targetPoint" />
            <Array as="points" />
          </mxGeometry>
        </mxCell>
        <mxCell id="PZaKtE-vyPjwhnsOyzuk-35" value="2.12.event状态更新，前端刷新UI" style="html=1;verticalAlign=bottom;endArrow=open;dashed=1;endSize=8;fontSize=12;exitX=-0.385;exitY=0.791;exitDx=0;exitDy=0;exitPerimeter=0;" parent="1" source="PZaKtE-vyPjwhnsOyzuk-12" edge="1">
          <mxGeometry relative="1" as="geometry">
            <mxPoint x="713.95" y="770" as="sourcePoint" />
            <mxPoint x="270" y="770" as="targetPoint" />
            <Array as="points">
              <mxPoint x="614.95" y="770" />
            </Array>
          </mxGeometry>
        </mxCell>
        <mxCell id="PZaKtE-vyPjwhnsOyzuk-36" value="2.13 发送执行请求" style="html=1;verticalAlign=bottom;endArrow=block;exitX=0.936;exitY=1;exitDx=0;exitDy=0;exitPerimeter=0;" parent="1" source="PZaKtE-vyPjwhnsOyzuk-9" edge="1">
          <mxGeometry width="80" relative="1" as="geometry">
            <mxPoint x="269.99080036798534" y="839.9967336683417" as="sourcePoint" />
            <mxPoint x="723" y="850" as="targetPoint" />
          </mxGeometry>
        </mxCell>
        <mxCell id="PZaKtE-vyPjwhnsOyzuk-37" value="2.11 更新管控单审批状态" style="edgeStyle=orthogonalEdgeStyle;html=1;align=left;spacingLeft=2;endArrow=block;rounded=0;" parent="1" edge="1">
          <mxGeometry x="-0.0323" relative="1" as="geometry">
            <mxPoint x="736" y="720" as="sourcePoint" />
            <Array as="points">
              <mxPoint x="736" y="719.73" />
              <mxPoint x="774" y="719.73" />
              <mxPoint x="774" y="753.73" />
            </Array>
            <mxPoint x="730" y="753.9999999999993" as="targetPoint" />
            <mxPoint as="offset" />
          </mxGeometry>
        </mxCell>
        <mxCell id="PZaKtE-vyPjwhnsOyzuk-38" value="2.8 URL跳转" style="html=1;verticalAlign=bottom;endArrow=block;entryX=0.472;entryY=0.928;entryDx=0;entryDy=0;entryPerimeter=0;" parent="1" source="PZaKtE-vyPjwhnsOyzuk-9" target="PZaKtE-vyPjwhnsOyzuk-19" edge="1">
          <mxGeometry x="0.0976" width="80" relative="1" as="geometry">
            <mxPoint x="281.92272309107636" y="675.2763819095477" as="sourcePoint" />
            <mxPoint x="1248.4084636614537" y="675.2763819095477" as="targetPoint" />
            <mxPoint as="offset" />
          </mxGeometry>
        </mxCell>
        <mxCell id="PZaKtE-vyPjwhnsOyzuk-39" style="edgeStyle=orthogonalEdgeStyle;rounded=0;orthogonalLoop=1;jettySize=auto;html=1;entryX=1;entryY=0.965;entryDx=0;entryDy=0;entryPerimeter=0;" parent="1" edge="1">
          <mxGeometry relative="1" as="geometry">
            <Array as="points">
              <mxPoint x="756" y="315" />
              <mxPoint x="756" y="350" />
            </Array>
            <mxPoint x="736" y="314.9999999999998" as="sourcePoint" />
            <mxPoint x="736" y="349.9949999999999" as="targetPoint" />
          </mxGeometry>
        </mxCell>
        <mxCell id="PZaKtE-vyPjwhnsOyzuk-40" value="1.7绑定eventId+orderId" style="edgeLabel;html=1;align=center;verticalAlign=middle;resizable=0;points=[];" parent="PZaKtE-vyPjwhnsOyzuk-39" vertex="1" connectable="0">
          <mxGeometry x="-0.0353" y="4" relative="1" as="geometry">
            <mxPoint x="34" as="offset" />
          </mxGeometry>
        </mxCell>
        <mxCell id="PZaKtE-vyPjwhnsOyzuk-41" value="2.2 发送执行请求" style="html=1;verticalAlign=bottom;endArrow=block;entryX=-0.05;entryY=0.05;entryDx=0;entryDy=0;entryPerimeter=0;exitX=0.936;exitY=0.048;exitDx=0;exitDy=0;exitPerimeter=0;" parent="1" source="PZaKtE-vyPjwhnsOyzuk-9" target="PZaKtE-vyPjwhnsOyzuk-12" edge="1">
          <mxGeometry width="80" relative="1" as="geometry">
            <mxPoint x="280" y="451" as="sourcePoint" />
            <mxPoint x="731" y="451" as="targetPoint" />
          </mxGeometry>
        </mxCell>
      </root>
    </mxGraphModel>
  </diagram>
</mxfile>
